<?xml version="1.0" encoding="UTF-8" standalone="no"?>
<!-- Created with Inkscape (http://www.inkscape.org/) -->

<svg
   xmlns:dc="http://purl.org/dc/elements/1.1/"
   xmlns:cc="http://creativecommons.org/ns#"
   xmlns:rdf="http://www.w3.org/1999/02/22-rdf-syntax-ns#"
   xmlns:svg="http://www.w3.org/2000/svg"
   xmlns="http://www.w3.org/2000/svg"
   xmlns:sodipodi="http://sodipodi.sourceforge.net/DTD/sodipodi-0.dtd"
   xmlns:inkscape="http://www.inkscape.org/namespaces/inkscape"
   width="34.713333mm"
   height="61.750935mm"
   viewBox="0 0 123 218.80252"
   id="svg4852"
   version="1.1"
   inkscape:version="0.91 r13725"
   sodipodi:docname="female-patient.svg">
  <defs
     id="defs4854" />
  <sodipodi:namedview
     id="base"
     pagecolor="#ffffff"
     bordercolor="#666666"
     borderopacity="1.0"
     inkscape:pageopacity="0.0"
     inkscape:pageshadow="2"
     inkscape:zoom="5.6"
     inkscape:cx="59.952671"
     inkscape:cy="38.201048"
     inkscape:document-units="px"
     inkscape:current-layer="layer1"
     showgrid="false"
     fit-margin-top="0"
     fit-margin-left="0"
     fit-margin-right="0"
     fit-margin-bottom="0"
     inkscape:window-width="1680"
     inkscape:window-height="969"
     inkscape:window-x="0"
     inkscape:window-y="24"
     inkscape:window-maximized="1" />
  <metadata
     id="metadata4857">
    <rdf:RDF>
      <cc:Work
         rdf:about="">
        <dc:format>image/svg+xml</dc:format>
        <dc:type
           rdf:resource="http://purl.org/dc/dcmitype/StillImage" />
        <dc:title />
      </cc:Work>
    </rdf:RDF>
  </metadata>
  <g
     inkscape:label="Capa 1"
     inkscape:groupmode="layer"
     id="layer1"
     transform="translate(-192.78571,-431.53237)">
    <g
       id="g409"
       transform="translate(-480.31429,399.2349)">
      <path
         d="m 734.7,32.3 c 0,0 -20.6,-0.7 -20.6,21.2 0,21.9 20.6,31.5 20.6,31.5 0,0 20.6,-9.6 20.6,-31.5 0,-21.9 -20.6,-21.2 -20.6,-21.2 z"
         id="path411"
         inkscape:connector-curvature="0"
         style="fill:#532f09" />
      <circle
         cx="734.70001"
         cy="58.700001"
         r="13.5"
         id="circle413"
         style="fill:#fbb040" />
      <rect
         x="722.70001"
         y="156.89999"
         width="23.799999"
         height="38.5"
         id="rect415"
         style="fill:#fcc7a3" />
      <g
         id="g417">
        <g
           id="g419">
          <circle
             cx="777.79999"
             cy="117.7"
             r="13.1"
             id="circle421"
             style="fill:#fcc7a3" />
          <circle
             cx="777.79999"
             cy="117.7"
             r="7.8000002"
             id="circle423"
             style="fill:#edaa84" />
        </g>
        <g
           id="g425">
          <circle
             cx="691.29999"
             cy="117.7"
             r="13.1"
             id="circle427"
             style="fill:#fcc7a3" />
          <circle
             cx="691.29999"
             cy="117.7"
             r="7.8000002"
             id="circle429"
             style="fill:#edaa84" />
        </g>
      </g>
      <path
         d="m 722.7,178.2 c 3.8,1 7.8,1.5 11.9,1.5 l 0,0 c 4.1,0 8.1,-0.5 11.9,-1.5 l 0,-21.3 -23.8,0 0,21.3 z"
         id="path431"
         inkscape:connector-curvature="0"
         style="fill:#edaa84" />
      <path
         d="m 696.1,99.5 2.6,36.7 c 1.3,18.9 17,33.5 36,33.5 l 0,0 c 18.9,0 34.6,-14.6 36,-33.5 l 2.6,-36.7 C 774.9,77.2 757.2,58.2 734.8,58.2 l 0,0 c -22.5,0 -40.2,19 -38.7,41.3 z"
         id="path433"
         inkscape:connector-curvature="0"
         style="fill:#fcc7a3" />
      <g
         id="g435">
        <circle
           cx="714.20001"
           cy="108.2"
           r="3.5999999"
           id="circle437"
           style="fill:#34383e" />
        <circle
           cx="755.20001"
           cy="108.2"
           r="3.5999999"
           id="circle439"
           style="fill:#34383e" />
      </g>
      <path
         d="m 725.3,136.1 c 0,5.2 4.2,9.4 9.4,9.4 5.2,0 9.4,-4.2 9.4,-9.4 l -18.8,0 z"
         id="path441"
         inkscape:connector-curvature="0"
         style="fill:#ffffff" />
      <path
         d="m 726.3,127.1 0,0 c 0,2.2 1.8,4.1 4.1,4.1 l 8.6,0 c 2.2,0 4.1,-1.8 4.1,-4.1 l 0,0 c 0,-2.2 -1.8,-4.1 -4.1,-4.1 l -8.6,0 c -2.3,0 -4.1,1.8 -4.1,4.1 z"
         id="path443"
         inkscape:connector-curvature="0"
         style="fill:#edaa84" />
      <path
         d="M 779.1,78 C 767.7,47.5 734.8,50.6 734.8,50.6 c 0,0 -32.9,-3.1 -44.3,27.4 -11.4,30.5 7.8,50.8 7.8,50.8 l 5.2,-48.6 31.3,0 31.2,0 5.2,48.6 c 0,0 19.3,-20.3 7.9,-50.8 z"
         id="path445"
         inkscape:connector-curvature="0"
         style="fill:#603913" />
      <path
         d="m 734.6,55.1 c 0,0 -37.8,-1.8 -42.7,33.2 -0.6,4.1 2.6,7.9 6.8,7.9 l 35.9,0 35.9,0 c 4.2,0 7.4,-3.7 6.8,-7.9 -5,-35 -42.7,-33.2 -42.7,-33.2 z"
         id="path447"
         inkscape:connector-curvature="0"
         style="fill:#6e421b" />
    </g>
    <path
       d="m 271.58571,600.2349 0,-14.1 -34.6,0 0,14.1 c -24.9,3.1 -44.2,24.3 -44.2,50.1 l 0,0 123,0 0,0 c 0,-25.7 -19.3,-47 -44.2,-50.1 z"
       id="path449"
       inkscape:connector-curvature="0"
       style="fill:#34383e;fill-opacity:1" />
    <polygon
       points="717.3,201 735.1,251.1 751.9,201 751.9,186.9 717.3,186.9 "
       id="polygon451"
       style="fill:#eff9fe"
       transform="matrix(1.0309661,0,0,1,-503.59772,399.2349)" />
    <g
       id="g453"
       transform="translate(-480.31429,399.2349)">
      <path
         d="m 716.9,201 c -4.5,0.6 -8.9,1.7 -13,3.4 l -3.2,12.1 34,34.6 0,0 -17.8,-50.1 z"
         id="path455"
         inkscape:connector-curvature="0"
         style="fill:#ffffff" />
      <path
         d="m 751.9,201 c 4.5,0.6 9.3,1.7 13.4,3.4 l 3.2,12.1 -34,34.6 0,0 17.4,-50.1 z"
         id="path457"
         inkscape:connector-curvature="0"
         style="fill:#ffffff" />
    </g>
  </g>
</svg>
