<?xml version="1.0" encoding="UTF-8" standalone="no"?>
<!-- Created with Inkscape (http://www.inkscape.org/) -->

<svg
   xmlns:dc="http://purl.org/dc/elements/1.1/"
   xmlns:cc="http://creativecommons.org/ns#"
   xmlns:rdf="http://www.w3.org/1999/02/22-rdf-syntax-ns#"
   xmlns:svg="http://www.w3.org/2000/svg"
   xmlns="http://www.w3.org/2000/svg"
   xmlns:sodipodi="http://sodipodi.sourceforge.net/DTD/sodipodi-0.dtd"
   xmlns:inkscape="http://www.inkscape.org/namespaces/inkscape"
   width="34.713333mm"
   height="58.081169mm"
   viewBox="0 0 123 205.79942"
   id="svg4859"
   version="1.1"
   inkscape:version="0.91 r13725"
   sodipodi:docname="male-patient.svg">
  <defs
     id="defs4861" />
  <sodipodi:namedview
     id="base"
     pagecolor="#ffffff"
     bordercolor="#666666"
     borderopacity="1.0"
     inkscape:pageopacity="0.0"
     inkscape:pageshadow="2"
     inkscape:zoom="2.8"
     inkscape:cx="-96.281811"
     inkscape:cy="109.10014"
     inkscape:document-units="px"
     inkscape:current-layer="layer1"
     showgrid="false"
     fit-margin-top="0"
     fit-margin-left="0"
     fit-margin-right="0"
     fit-margin-bottom="0"
     inkscape:window-width="1680"
     inkscape:window-height="969"
     inkscape:window-x="0"
     inkscape:window-y="24"
     inkscape:window-maximized="1" />
  <metadata
     id="metadata4864">
    <rdf:RDF>
      <cc:Work
         rdf:about="">
        <dc:format>image/svg+xml</dc:format>
        <dc:type
           rdf:resource="http://purl.org/dc/dcmitype/StillImage" />
        <dc:title></dc:title>
      </cc:Work>
    </rdf:RDF>
  </metadata>
  <g
     inkscape:label="Capa 1"
     inkscape:groupmode="layer"
     id="layer1"
     transform="translate(-249.92858,-420.15564)">
    <rect
       style="fill:#fcc7a3"
       id="rect345"
       height="38.5"
       width="23.799999"
       y="531.75507"
       x="299.6286" />
    <g
       id="g347"
       transform="translate(-214.07142,374.85506)">
      <g
         id="g349">
        <circle
           style="fill:#fcc7a3"
           id="circle351"
           r="13.1"
           cy="114"
           cx="572.29999" />
        <circle
           style="fill:#edaa84"
           id="circle353"
           r="7.8000002"
           cy="114"
           cx="572.29999" />
      </g>
      <g
         id="g355">
        <circle
           style="fill:#fcc7a3"
           id="circle357"
           r="13.1"
           cy="114"
           cx="478.89999" />
        <circle
           style="fill:#edaa84"
           id="circle359"
           r="7.8000002"
           cy="114"
           cx="478.89999" />
      </g>
    </g>
    <path
       style="fill:#edaa84"
       inkscape:connector-curvature="0"
       id="path361"
       d="m 299.62858,553.05506 c 3.8,1 7.8,1.5 11.9,1.5 l 0,0 c 4.1,0 8.1,-0.5 11.9,-1.5 l 0,-21.3 -23.8,0 0,21.3 z" />
    <path
       style="fill:#fcc7a3"
       inkscape:connector-curvature="0"
       id="path363"
       d="m 270.12858,474.45506 0,28.7 c 0,22.9 18.5,41.4 41.4,41.4 l 0,0 c 22.9,0 41.4,-18.5 41.4,-41.4 l 0,-28.7 c 0,-22.9 -18.5,-41.4 -41.4,-41.4 l 0,0 c -22.8,0 -41.4,18.5 -41.4,41.4 z" />
    <g
       id="g365"
       transform="translate(-214.07142,374.85506)">
      <circle
         style="fill:#34383e"
         id="circle367"
         r="3.5999999"
         cy="108.2"
         cx="505.10001" />
      <circle
         style="fill:#34383e"
         id="circle369"
         r="3.5999999"
         cy="108.2"
         cx="546.09998" />
    </g>
    <path
       style="fill:#ffffff"
       inkscape:connector-curvature="0"
       id="path371"
       d="m 302.12858,510.95506 c 0,5.2 4.2,9.4 9.4,9.4 5.2,0 9.4,-4.2 9.4,-9.4 l -18.8,0 z" />
    <path
       style="fill:#edaa84"
       inkscape:connector-curvature="0"
       id="path397"
       d="m 303.22858,501.95506 0,0 c 0,2.2 1.8,4.1 4.1,4.1 l 8.6,0 c 2.2,0 4.1,-1.8 4.1,-4.1 l 0,0 c 0,-2.2 -1.8,-4.1 -4.1,-4.1 l -8.6,0 c -2.3,0 -4.1,1.8 -4.1,4.1 z" />
    <path
       style="fill:#be1e2d"
       inkscape:connector-curvature="0"
       id="path401"
       d="m 311.62858,568.65506 0,8.7 17.1,0 0,-15.5 -10.2,0 c -3.8,-0.1 -6.9,3 -6.9,6.8 z" />
    <path
       style="fill:#be1e2d"
       inkscape:connector-curvature="0"
       id="path403"
       d="m 294.12858,561.75506 0,15.5 17.5,0 0,-8.7 c 0,-3.8 -3.1,-6.8 -6.8,-6.8 l -10.7,0 z" />
    <path
       style="fill:#34383e;fill-opacity:1"
       inkscape:connector-curvature="0"
       id="path405"
       d="m 249.92858,625.95506 0,0 123,0 0,0 c 0,-27.9 -22.6,-50.5 -50.5,-50.5 l -22,0 c -27.9,0 -50.5,22.6 -50.5,50.5 z" />
    <g
       id="g31"
       transform="translate(-5.1448805,374.26868)">
      <path
         d="m 275.1,108.2 c 0,0 19.1,-13.6 19.1,-43.5 0,0 -15.3,1.8 -20.8,18.8 -4.9,15.3 1.7,24.7 1.7,24.7 z"
         id="path33"
         inkscape:connector-curvature="0"
         style="fill:#34383e" />
      <path
         d="m 357.9,108.2 c 0,0 -19.1,-13.6 -19.1,-43.5 0,0 15.3,1.8 20.8,18.8 5,15.3 -1.7,24.7 -1.7,24.7 z"
         id="path35"
         inkscape:connector-curvature="0"
         style="fill:#34383e" />
    </g>
    <path
       style="fill:#34383e"
       inkscape:connector-curvature="0"
       id="path47"
       d="m 280.55512,450.36868 c 0,0 43.8,43.5 80,5.5 0,0 -13.5,-26.6 -37.3,-33.9 -23.8,-7.4 -45.8,9 -42.7,28.4 z" />
  </g>
</svg>
